<svg xmlns="http://www.w3.org/2000/svg" width="512" height="512" viewBox="0 0 512 512">
  <defs>
    <linearGradient id="bg" x1="0%" y1="0%" x2="100%" y2="100%">
      <stop offset="0%" style="stop-color:#0f172a"/>
      <stop offset="100%" style="stop-color:#1e293b"/>
    </linearGradient>
    <linearGradient id="pin" x1="0%" y1="0%" x2="100%" y2="100%">
      <stop offset="0%" style="stop-color:#6366f1"/>
      <stop offset="100%" style="stop-color:#22d3ee"/>
    </linearGradient>
  </defs>
  <rect width="512" height="512" rx="80" fill="url(#bg)"/>
  <!-- Location pin -->
  <path d="M256 80c-66.3 0-120 53.7-120 120 0 90 120 232 120 232s120-142 120-232c0-66.3-53.7-120-120-120zm0 163c-23.8 0-43-19.2-43-43s19.2-43 43-43 43 19.2 43 43-19.2 43-43 43z" fill="url(#pin)"/>
  <!-- Copy indicator -->
  <rect x="310" y="300" width="100" height="120" rx="12" fill="none" stroke="#22d3ee" stroke-width="8" opacity="0.8"/>
  <rect x="330" y="320" width="100" height="120" rx="12" fill="none" stroke="#6366f1" stroke-width="8" opacity="0.6"/>
</svg>
